
mtllib mirror9.mtl

#
# object Line26
#

v  -1.03830 25.95567 -24.49392
v  -1.03831 25.95567 24.49396
v  -1.03831 43.51218 42.05045
v  -1.03830 43.51218 -42.05043
v  -0.09204 45.00000 -45.00000
v  -0.09205 24.99998 -24.99998
v  -0.09205 24.99998 25.00002
v  -0.09206 45.00000 45.00002
v  -1.03831 24.49392 25.95567
v  -1.03831 -24.49396 25.95567
v  -1.03831 -42.05045 43.51218
v  -1.03831 42.05043 43.51218
v  -0.09206 45.00000 45.00000
v  -0.09205 24.99998 24.99998
v  -0.09205 -25.00002 24.99998
v  -0.09206 -45.00002 45.00000
v  -1.03831 -25.95567 24.49392
v  -1.03830 -25.95567 -24.49396
v  -1.03830 -43.51218 -42.05045
v  -1.03831 -43.51218 42.05043
v  -0.09206 -45.00000 45.00000
v  -0.09205 -24.99998 24.99998
v  -0.09205 -24.99998 -25.00002
v  -0.09204 -45.00000 -45.00002
v  -1.03830 -24.49392 -25.95567
v  -1.03830 24.49396 -25.95567
v  -1.03830 42.05045 -43.51218
v  -1.03830 -42.05043 -43.51218
v  -0.09204 -45.00000 -45.00000
v  -0.09205 -24.99998 -24.99998
v  -0.09205 25.00002 -24.99998
v  -0.09204 45.00002 -45.00000
v  1.03831 -25.00000 -24.99998
v  1.03831 25.00000 -24.99998
v  1.03830 25.00000 25.00002
v  1.03830 -25.00000 25.00002
v  -0.53882 -25.00000 -24.99998
v  -0.53883 -25.00000 25.00002
v  -0.53883 25.00000 25.00002
v  -0.53882 25.00000 -24.99998
# 40 vertices

vn -1.00000 -0.00000 -0.00000
vn -0.73759 -0.47747 -0.47747
vn -0.71061 -0.70359 -0.00000
vn -0.73759 -0.47747 0.47747
vn -0.84380 0.53665 -0.00000
vn 1.00000 0.00000 0.00000
vn -1.00000 0.00000 -0.00000
vn -0.73759 0.47747 -0.47747
vn -0.71061 -0.00000 -0.70359
vn -0.84380 0.00000 0.53665
vn -0.73759 0.47747 0.47747
vn -0.71061 0.70359 -0.00000
vn -0.84380 -0.53666 -0.00000
vn 1.00000 -0.00000 0.00000
vn -0.71061 0.00000 0.70359
vn -0.84380 -0.00000 -0.53665
vn 0.00000 -1.00000 -0.00000
vn 0.00000 0.00000 1.00000
vn 0.00000 1.00000 -0.00000
vn 0.00000 0.00000 -1.00000
# 20 vertex normals

vt 0.00000 0.00000 0.00000
vt 1.00000 0.00000 0.00000
vt 1.00000 1.00000 0.00000
vt 0.00000 1.00000 0.00000
# 4 texture coords

g Line26
usemtl 01___Default
s 16
f 1/1/1 2/1/1 3/1/1 4/1/1 
s off
f 1/1/2 4/1/2 5/1/2 6/1/2 
f 2/1/3 1/1/3 6/1/3 7/1/3 
f 3/1/4 2/1/4 7/1/4 8/1/4 
f 4/1/5 3/1/5 8/1/5 5/1/5 
s 1
f 8/1/6 7/1/6 6/1/6 5/1/6 
s 16
f 9/1/7 10/1/7 11/1/7 12/1/7 
s off
f 9/1/8 12/1/8 13/1/8 14/1/8 
f 10/1/9 9/1/9 14/1/9 15/1/9 
f 11/1/2 10/1/2 15/1/2 16/1/2 
f 12/1/10 11/1/10 16/1/10 13/1/10 
s 1
f 16/1/6 15/1/6 14/1/6 13/1/6 
s 16
f 17/1/7 18/1/7 19/1/7 20/1/7 
s off
f 17/1/11 20/1/11 21/1/11 22/1/11 
f 18/1/12 17/1/12 22/1/12 23/1/12 
f 19/1/8 18/1/8 23/1/8 24/1/8 
f 20/1/13 19/1/13 24/1/13 21/1/13 
s 1
f 24/1/14 23/1/14 22/1/14 21/1/14 
s 16
f 25/1/1 26/1/1 27/1/1 28/1/1 
s off
f 25/1/4 28/1/4 29/1/4 30/1/4 
f 26/1/15 25/1/15 30/1/15 31/1/15 
f 27/1/11 26/1/11 31/1/11 32/1/11 
f 28/1/16 27/1/16 32/1/16 29/1/16 
s 1
f 32/1/6 31/1/6 30/1/6 29/1/6 
s 2
f 33/2/6 34/3/6 35/4/6 36/1/6 
s 4
f 37/1/1 38/2/1 39/3/1 40/4/1 
s 8
f 33/1/17 36/2/17 38/3/17 37/4/17 
s 16
f 36/1/18 35/2/18 39/3/18 38/4/18 
s 32
f 35/1/19 34/2/19 40/3/19 39/4/19 
s 64
f 34/1/20 33/2/20 37/3/20 40/4/20 
# 30 polygons

