# 
# Wavefront OBJ file
# Converted by the DEEP Exploration 2.00.1211
# Right Hemisphere, LTD
# http://www.righthemisphere.com/
# 
mtllib fot08.mtl
# object cube1
g cube1
v -0.57366 4.03794 -3.47042
v -0.57366 4.76594 -3.47042
v 0.55434 4.76594 -3.47042
v 0.55434 4.03794 -3.47042
v -0.57366 4.03794 3.46742
v -0.57366 4.76594 3.46742
v 0.55434 4.76594 3.46742
v 0.55434 4.03794 3.46742
v -0.421404 4.03794 -3.31816
v -0.421404 4.30143 -3.31816
v 0.402085 4.30143 -3.31816
v 0.402085 4.03794 -3.31816
v -0.421404 4.03794 3.31516
v -0.421404 4.30143 3.31516
v 0.402085 4.30143 3.31516
v 0.402085 4.03794 3.31516
# 16 verticies
vn 0 0 -1
vn 1 0 0
vn 0 1 0
vn 0 0 1
vn -1 0 0
vn 0 -1 0
# 6 normals
usemtl default
f  3//1 4//1 1//1
f  2//1 3//1 1//1
f  7//2 8//2 4//2
f  3//2 7//2 4//2
f  6//3 7//3 3//3
f  3//3 2//3 6//3
f  8//4 7//4 6//4
f  6//4 5//4 8//4
f  1//5 6//5 2//5
f  1//5 5//5 6//5
f  12//4 11//4 10//4
f  10//4 9//4 12//4
f  12//5 15//5 11//5
f  12//5 16//5 15//5
f  15//6 14//6 10//6
f  11//6 15//6 10//6
f  15//1 16//1 13//1
f  14//1 15//1 13//1
f  14//2 13//2 9//2
f  10//2 14//2 9//2
f  1//6 9//6 13//6
f  13//6 5//6 1//6
f  4//6 12//6 9//6
f  9//6 1//6 4//6
f  8//6 12//6 4//6
f  8//6 16//6 12//6
f  13//6 16//6 8//6
f  8//6 5//6 13//6
# object cube2
g cube2
v 0.0883404 4.13478 -3.1716
v 0.0883404 4.33878 -3.1716
v 0.29234 4.33878 -3.1716
v 0.29234 4.13478 -3.1716
v 0.0883404 4.13478 3.1686
v 0.0883404 4.33878 3.1686
v 0.29234 4.33878 3.1686
v 0.29234 4.13478 3.1686
# 8 verticies
vn 0 0 -1
vn 1 0 0
vn 0 -1 0
vn 0 1 0
vn 0 0 1
vn -1 0 0
# 6 normals
usemtl light
f  19//7 20//7 17//7
f  18//7 19//7 17//7
f  23//8 24//8 20//8
f  19//8 23//8 20//8
f  24//9 21//9 17//9
f  20//9 24//9 17//9
f  22//10 23//10 19//10
f  19//10 18//10 22//10
f  24//11 23//11 22//11
f  22//11 21//11 24//11
f  17//12 22//12 18//12
f  17//12 21//12 22//12
# object cube2_cop3
g cube2_cop3
v -0.31166 4.13478 -3.1716
v -0.31166 4.33878 -3.1716
v -0.10766 4.33878 -3.1716
v -0.10766 4.13478 -3.1716
v -0.31166 4.13478 3.1686
v -0.31166 4.33878 3.1686
v -0.10766 4.33878 3.1686
v -0.10766 4.13478 3.1686
# 8 verticies
vn 0 0 -1
vn 1 0 0
vn 0 -1 0
vn 0 1 0
vn 0 0 1
vn -1 0 0
# 6 normals
f  27//13 28//13 25//13
f  26//13 27//13 25//13
f  31//14 32//14 28//14
f  27//14 31//14 28//14
f  32//15 29//15 25//15
f  28//15 32//15 25//15
f  30//16 31//16 27//16
f  27//16 26//16 30//16
f  32//17 31//17 30//17
f  30//17 29//17 32//17
f  25//18 30//18 26//18
f  25//18 29//18 30//18
# object cube2_cop4
g cube2_cop4
v -0.0671876 4.68077 2.94486
v -0.0671876 6.85339 2.94486
v 0.0478684 6.85339 2.94486
v 0.0478684 4.68077 2.94486
v -0.0671876 4.68077 3.05214
v -0.0671876 6.85339 3.05214
v 0.0478684 6.85339 3.05214
v 0.0478684 4.68077 3.05214
# 8 verticies
vn 0 0 -1
vn 1 0 0
vn 0 -1 0
vn 0 1 0
vn 0 0 1
vn -1 0 0
# 6 normals
usemtl default
f  35//19 36//19 33//19
f  34//19 35//19 33//19
f  39//20 40//20 36//20
f  35//20 39//20 36//20
f  36//21 37//21 33//21
f  36//21 40//21 37//21
f  34//22 39//22 35//22
f  34//22 38//22 39//22
f  40//23 39//23 38//23
f  38//23 37//23 40//23
f  37//24 38//24 34//24
f  34//24 33//24 37//24
# object cube2_cop5
g cube2_cop5
v -0.0671876 4.68077 -3.05514
v -0.0671876 6.85339 -3.05514
v 0.0478684 6.85339 -3.05514
v 0.0478684 4.68077 -3.05514
v -0.0671876 4.68077 -2.94786
v -0.0671876 6.85339 -2.94786
v 0.0478684 6.85339 -2.94786
v 0.0478684 4.68077 -2.94786
# 8 verticies
vn 0 0 -1
vn 1 0 0
vn 0 -1 0
vn 0 1 0
vn 0 0 1
vn -1 0 0
# 6 normals
f  43//25 44//25 41//25
f  42//25 43//25 41//25
f  47//26 48//26 44//26
f  43//26 47//26 44//26
f  44//27 45//27 41//27
f  44//27 48//27 45//27
f  42//28 47//28 43//28
f  42//28 46//28 47//28
f  48//29 47//29 46//29
f  46//29 45//29 48//29
f  45//30 46//30 42//30
f  42//30 41//30 45//30
